# xmcd
#
# Track frame offsets: 
#        150
#        22555
#        46157
#        65582
#        91892
#        111487
#        131005
#        152612
#        169347
#        193785
#
# Disc length: 2822 seconds
#
# Revision: 3
# Processed by: cddbd v1.5.2PL0 Copyright (c) Steve Scherf et al.
# Submitted via: ExactAudioCopy v0.99pb4
#
DISCID=7e0b040a
DTITLE=Koko Taylor - Jump For Joy
DYEAR=1990
DGENRE=Blues
TTITLE0=Can't Let Go
TTITLE1=Stop Watching Your Enemies
TTITLE2=Hey Baby
TTITLE3=Tired Of That
TTITLE4=It's A Dirt Job
TTITLE5=Jump For Joy
TTITLE6=Time Will Tell
TTITLE7=The Eyes Don't Lie
TTITLE8=Fishing Trip
TTITLE9=I Don't Want No Leftovers
EXTD=
EXTT0=
EXTT1=Taylor
EXTT2=St. Holmes
EXTT3=Taylor and Williams
EXTT4=James, Brandon and Carnes
EXTT5=Taylor
EXTT6=Gayten
EXTT7=James, Carpenter and Jawarwicz
EXTT8=McFalls
EXTT9=Johnson
PLAYORDER=
